<svg width="80" height="80" viewBox="0 0 80 80" fill="none" xmlns="http://www.w3.org/2000/svg">
  <rect x="6" y="6" width="68" height="68" rx="18" fill="url(#paint0_linear)"/>
  <rect x="18" y="24" width="44" height="28" rx="5" fill="#3F454B"/>
  <rect x="23" y="28" width="34" height="20" rx="1.5" fill="white"/>
  <rect x="26" y="31" width="28" height="14" fill="#32BDB8"/>
  <path d="M31 38.2L37.2 44.4L50.5 31.1L54 34.6L37.2 51.4L27.5 41.7L31 38.2Z" fill="white"/>
  <rect x="29" y="59" width="29" height="4" rx="1" fill="white"/>
  <path d="M58 58L65 61L58 64V58Z" fill="white"/>
  <rect x="20" y="58" width="10" height="6" rx="3" fill="white"/>
  <rect x="19" y="35" width="2" height="6" rx="1" fill="#596069"/>
  <defs>
    <linearGradient id="paint0_linear" x1="14" y1="11" x2="66" y2="72" gradientUnits="userSpaceOnUse">
      <stop stop-color="#36C5C3"/>
      <stop offset="1" stop-color="#24AFAA"/>
    </linearGradient>
  </defs>
</svg>
