<svg width="80" height="80" viewBox="0 0 80 80" fill="none" xmlns="http://www.w3.org/2000/svg">
  <rect x="6" y="6" width="68" height="68" rx="18" fill="url(#paint0_linear)"/>
  <path d="M17 42H46V60H17V42Z" fill="white"/>
  <path d="M15 39C19.2 38.7 24.2 35.4 26.5 29H54.5C56.8 35.4 61.8 38.7 66 39V44H15V39Z" fill="white"/>
  <path d="M24 29H57V34H24V29Z" fill="white"/>
  <path d="M28 35H32L29.5 44H25.5L28 35Z" fill="#F06A2F"/>
  <path d="M38 35H42L41 44H37L38 35Z" fill="#F06A2F"/>
  <path d="M49 35H53L56 44H52L49 35Z" fill="#F06A2F"/>
  <rect x="23" y="48" width="7" height="7" rx="1" fill="#F06A2F"/>
  <rect x="34" y="48" width="7" height="7" rx="1" fill="#F06A2F"/>
  <path d="M47 60V49C47 46.7909 48.7909 45 51 45H54C56.2091 45 58 46.7909 58 49V60H47Z" fill="#F06A2F"/>
  <path d="M57 55C59.5 50 65 47 70 48.5C64.7 42.4 57.6 40.1 51.5 43.2L51.5 35L34.5 50L51.5 65L51.5 57.5C56.1 57.1 61.6 59.6 64 67C64.4 62.2 62.2 57.6 57 55Z" fill="white"/>
  <defs>
    <linearGradient id="paint0_linear" x1="14" y1="11" x2="67" y2="72" gradientUnits="userSpaceOnUse">
      <stop stop-color="#FF7A35"/>
      <stop offset="1" stop-color="#F05D25"/>
    </linearGradient>
  </defs>
</svg>
